<svg id="fi-rr-marker" xmlns="http://www.w3.org/2000/svg" width="45.315" height="54.085" viewBox="0 0 45.315 54.085">
  <path id="Path_895" data-name="Path 895" d="M17.013,6a9.013,9.013,0,1,0,9.013,9.013A9.013,9.013,0,0,0,17.013,6Zm0,13.52a4.507,4.507,0,1,1,4.507-4.507A4.507,4.507,0,0,1,17.013,19.52Z" transform="translate(5.644 7.525)" fill="#f34647"/>
  <path id="Path_896" data-name="Path 896" d="M24.6,54.083a11.877,11.877,0,0,1-9.714-4.957C6.3,37.279,1.945,28.374,1.945,22.655a22.657,22.657,0,0,1,45.315,0c0,5.719-4.356,14.624-12.943,26.47A11.877,11.877,0,0,1,24.6,54.083Zm0-49.166A17.763,17.763,0,0,0,6.86,22.66c0,4.529,4.266,12.9,12.008,23.583a7.087,7.087,0,0,0,11.47,0C38.08,35.565,42.345,27.189,42.345,22.66A17.763,17.763,0,0,0,24.6,4.917Z" transform="translate(-1.945 0.002)" fill="#f34647"/>
</svg>
