<svg id="Group_1592" data-name="Group 1592" xmlns="http://www.w3.org/2000/svg" xmlns:xlink="http://www.w3.org/1999/xlink" width="227.186" height="290.418" viewBox="0 0 227.186 290.418">
  <defs>
    <clipPath id="clip-path">
      <rect id="Rectangle_249" data-name="Rectangle 249" width="227.186" height="290.418" fill="none"/>
    </clipPath>
    <clipPath id="clip-path-3">
      <rect id="Rectangle_239" data-name="Rectangle 239" width="58.466" height="58.085" fill="none"/>
    </clipPath>
    <clipPath id="clip-path-4">
      <rect id="Rectangle_240" data-name="Rectangle 240" width="12.15" height="8.291" fill="none"/>
    </clipPath>
    <clipPath id="clip-path-5">
      <rect id="Rectangle_241" data-name="Rectangle 241" width="13.107" height="6.949" fill="none"/>
    </clipPath>
    <clipPath id="clip-path-6">
      <rect id="Rectangle_242" data-name="Rectangle 242" width="9.443" height="9.551" fill="none"/>
    </clipPath>
    <clipPath id="clip-path-7">
      <rect id="Rectangle_243" data-name="Rectangle 243" width="11.234" height="4.111" fill="none"/>
    </clipPath>
    <clipPath id="clip-path-8">
      <rect id="Rectangle_244" data-name="Rectangle 244" width="9.923" height="6.663" fill="none"/>
    </clipPath>
    <clipPath id="clip-path-9">
      <rect id="Rectangle_245" data-name="Rectangle 245" width="12.418" height="7.494" fill="none"/>
    </clipPath>
  </defs>
  <g id="Group_1591" data-name="Group 1591" clip-path="url(#clip-path)">
    <g id="Group_1590" data-name="Group 1590">
      <g id="Group_1589" data-name="Group 1589" clip-path="url(#clip-path)">
        <path id="Path_761" data-name="Path 761" d="M530.346,1868.891s-8.814,1.727-3.285,5.28,44.665-2.042,77.073-13.454,34.348-21.567,30.538-21.626c-22.139-.342-104.326,29.8-104.326,29.8" transform="translate(-452.618 -1584.812)" fill="#efefef"/>
        <path id="Path_762" data-name="Path 762" d="M246.781,189.267c-50,77.222-138.24,64.246-180.872,25.634,0,0-47.109-44.761-10.882-88.749,15.315-18.6,17.5-37.831,21.231-55h0c5.1-23.442,13.091-43.028,61.361-51.862,32.469-5.943,63.721,6.716,86.877,28.948,36.48,35.019,52.87,93.793,22.287,141.028" transform="translate(-35.618 -15.364)" fill="#f4f4f4"/>
        <path id="Path_763" data-name="Path 763" d="M246.782,378.807c-50,77.222-138.24,64.246-180.872,25.634,0,0-38.4-36.49-19.2-75.953a64.608,64.608,0,0,1,8.315-12.8c15.314-18.595,17.5-37.828,21.231-54.994.025.45,2.369,40.824,46.374,27.614,34.2-10.264,61.8-45.436,101.863-50.533,20.532,19.709,34.7,46.945,37.71,75.413a99.8,99.8,0,0,1-15.424,65.615" transform="translate(-35.619 -204.903)" fill="#efefef"/>
        <path id="Path_764" data-name="Path 764" d="M246.784,754.37c-50,77.222-138.24,64.246-180.872,25.634,0,0-17.9-17.01-23.148-40.362a52.944,52.944,0,0,1,3.95-35.592c18.513,10.566,59.964,29.5,90.2,8.272,33.668-23.647,86.89-59.338,125.3-23.568a106.776,106.776,0,0,1,.6,11.33,98.986,98.986,0,0,1-16.021,54.285" transform="translate(-35.621 -580.466)" fill="#ffbdc3"/>
        <path id="Path_765" data-name="Path 765" d="M255.687,919.447c-50,77.222-138.24,64.246-180.872,25.634,0,0-17.9-17.01-23.148-40.362,0,0,18.158,26.212,67.377,32.278,53.848,6.637,101.895-62.58,152.664-71.836a98.985,98.985,0,0,1-16.021,54.285" transform="translate(-44.523 -745.543)" fill="#ffa6ab"/>
        <path id="Path_766" data-name="Path 766" d="M286.819,67.267l-.137-.021A57.217,57.217,0,0,1,293.648,49.2,52.671,52.671,0,0,1,305.7,35.058a51.453,51.453,0,0,1,20.728-10.081l.032.135A51.014,51.014,0,0,0,293.77,49.267a57.078,57.078,0,0,0-6.951,18" transform="translate(-247.045 -21.524)" fill="#f4f4f4"/>
        <path id="Path_767" data-name="Path 767" d="M615,2.919l-.03-.135C615.089,2.757,627.03.1,631.734,0l0,.138c-4.69.1-16.617,2.754-16.737,2.781" transform="translate(-529.942)" fill="#f4f4f4"/>
        <path id="Path_768" data-name="Path 768" d="M18.55,1003.873c-.057-.033-5.784-3.409-10.813-12.8a64.116,64.116,0,0,1-6.359-19.261,113.408,113.408,0,0,1-.652-30.731l.138.014c-2.6,25.587,2.366,41.265,6.995,49.912,5.011,9.361,10.7,12.717,10.761,12.75Z" transform="translate(0 -810.962)" fill="#f4f4f4"/>
        <path id="Path_769" data-name="Path 769" d="M914.537,443.545l1.545-1.537,22.571-22.467L973,443.924l-7.553,11.217h0l-15.143,22.485Z" transform="translate(-788.092 -361.535)" fill="#f34647"/>
        <g id="Group_1570" data-name="Group 1570" transform="translate(126.445 58.006)" opacity="0.33">
          <g id="Group_1569" data-name="Group 1569">
            <g id="Group_1568" data-name="Group 1568" clip-path="url(#clip-path-3)">
              <path id="Path_770" data-name="Path 770" d="M914.537,443.545l1.545-1.537,22.571-22.467L973,443.924l-7.553,11.217h0l-15.143,22.485Z" transform="translate(-914.537 -419.541)" fill="#231f20"/>
            </g>
          </g>
        </g>
        <path id="Path_771" data-name="Path 771" d="M875.59,373.114l7.6,5.671-22.042,30.662-12.359-6.731Z" transform="translate(-731.437 -321.527)" fill="#db091e"/>
        <path id="Path_772" data-name="Path 772" d="M734.884,384.645l41.256-11.531L750.277,406.3s-16.487.116-16.844-6.906a61.779,61.779,0,0,1,1.451-14.748" transform="translate(-631.987 -321.527)" fill="#ff646c"/>
        <path id="Path_773" data-name="Path 773" d="M736.112,438.989c-.2.057,1.536,7.345,1.652,12.112s9.985,5.659,9.985,5.659l-1.736,2.567s-23.269,1.06-21.123-5.78,9.721-14.14,9.721-14.14Z" transform="translate(-624.546 -378.294)" fill="#db091e"/>
        <path id="Path_774" data-name="Path 774" d="M1060.7,1864.129a4.649,4.649,0,0,0,1.809,3.87,3.634,3.634,0,0,0,2.1.73c.232.005,3.668-.051,3.668-.051a4.073,4.073,0,0,1-2.957-2.445,4.884,4.884,0,0,1-.41-2.1,4.655,4.655,0,0,1,1.932-3.742.043.043,0,0,0-.013-.011,1.613,1.613,0,0,1,.255-.147,2.4,2.4,0,0,1,.256-.133,3.92,3.92,0,0,1,1.392-.343l-.271-.006c-.006.006-.012.006-.025.005-.869-.01-3.391-.041-3.617-.047a4.284,4.284,0,0,0-4.118,4.42" transform="translate(-914.047 -1602.583)" fill="#59302a"/>
        <path id="Path_775" data-name="Path 775" d="M1091.143,1864.218a4.874,4.874,0,0,0,.409,2.1,4.073,4.073,0,0,0,2.957,2.445,3.324,3.324,0,0,0,.54.06,4.281,4.281,0,0,0,4.118-4.417,4.38,4.38,0,0,0-.085-1,4.131,4.131,0,0,0-3.823-3.593,4.341,4.341,0,0,0-.567.028c-.006.006-.012.006-.025.005a3.512,3.512,0,0,0-1.1.344,2.53,2.53,0,0,0-.256.133c-.083.051-.164.1-.242.158a4.653,4.653,0,0,0-1.932,3.742" transform="translate(-940.279 -1602.668)" fill="#663e36"/>
        <path id="Path_776" data-name="Path 776" d="M1112.193,1883.133a1.317,1.317,0,1,0,1.322-1.573,1.47,1.47,0,0,0-1.322,1.573" transform="translate(-958.419 -1621.413)" fill="#070208"/>
        <g id="Group_1573" data-name="Group 1573" transform="translate(146.654 257.126)" opacity="0.4" style="mix-blend-mode: multiply;isolation: isolate">
          <g id="Group_1572" data-name="Group 1572" transform="translate(0)">
            <g id="Group_1571" data-name="Group 1571" clip-path="url(#clip-path-4)">
              <path id="Path_777" data-name="Path 777" d="M1060.7,1864.129a4.649,4.649,0,0,0,1.809,3.87,8,8,0,0,0,2.809-1.767.5.5,0,0,0,.079-.1,6.377,6.377,0,0,1,2.423-1.665,15.773,15.773,0,0,1,2.435-.856,8.222,8.222,0,0,1,2.594-.3,4.131,4.131,0,0,0-3.823-3.593,4.362,4.362,0,0,0-.567.028c-.006.006-.012.006-.025.005-.869-.01-3.391-.041-3.617-.047a4.284,4.284,0,0,0-4.118,4.42" transform="translate(-1060.701 -1859.708)" fill="#3a2630"/>
            </g>
          </g>
        </g>
        <path id="Path_778" data-name="Path 778" d="M564.046,2009.151a5.126,5.126,0,0,0,.287,1.844,4.318,4.318,0,0,0,3.9,3.083c.253.006,3.932-.055,3.932-.055a4.492,4.492,0,0,1-3.466-3.5,5.309,5.309,0,0,1-.138-1.356,5,5,0,0,1,2.063-4.012l-.007-.007c.092-.061.181-.114.268-.16a1.245,1.245,0,0,1,.211-.107.132.132,0,0,1,.071-.034,4.235,4.235,0,0,1,1.487-.365l-.289-.007c-.007,0-.019,0-.025,0-.933-.007-3.637-.041-3.881-.047a4.588,4.588,0,0,0-4.41,4.724" transform="translate(-486.059 -1727.291)" fill="#59302a"/>
        <path id="Path_779" data-name="Path 779" d="M596.684,2009.229a5.307,5.307,0,0,0,.138,1.356,4.492,4.492,0,0,0,3.466,3.5,3.625,3.625,0,0,0,.578.069,4.3,4.3,0,0,0,3.966-2.717,5.241,5.241,0,0,0,.444-2.011,4.586,4.586,0,0,0-4.184-4.926,4.024,4.024,0,0,0-.6.033c-.007,0-.019,0-.025,0a3.738,3.738,0,0,0-1.173.368.129.129,0,0,0-.071.033,1.839,1.839,0,0,0-.211.107c-.087.054-.176.11-.261.168a5,5,0,0,0-2.062,4.012" transform="translate(-514.185 -1727.357)" fill="#663e36"/>
        <path id="Path_780" data-name="Path 780" d="M619.212,2029.476a1.41,1.41,0,1,0,1.415-1.687,1.573,1.573,0,0,0-1.415,1.687" transform="translate(-533.599 -1747.424)" fill="#070208"/>
        <g id="Group_1576" data-name="Group 1576" transform="translate(77.986 277.135)" opacity="0.4" style="mix-blend-mode: multiply;isolation: isolate">
          <g id="Group_1575" data-name="Group 1575" transform="translate(0)">
            <g id="Group_1574" data-name="Group 1574" clip-path="url(#clip-path-5)">
              <path id="Path_781" data-name="Path 781" d="M564.046,2009.151a5.129,5.129,0,0,0,.287,1.844,9.424,9.424,0,0,0,4.363-.476,21.394,21.394,0,0,0,2.526-.93,2.16,2.16,0,0,1,.456-.153,3.364,3.364,0,0,1,2.621.629,16.135,16.135,0,0,0,2.405,1.31,5.239,5.239,0,0,0,.444-2.011,4.586,4.586,0,0,0-4.184-4.926,4.108,4.108,0,0,0-.6.033c-.007,0-.019,0-.025,0-.933-.007-3.637-.041-3.881-.047a4.588,4.588,0,0,0-4.41,4.724" transform="translate(-564.045 -2004.426)" fill="#3a2630"/>
            </g>
          </g>
        </g>
        <path id="Path_782" data-name="Path 782" d="M1135.247,1827.661l3.507,4.814,1.349.077,1.476.086s1.529-4.749,2.44-7.58a.005.005,0,0,0,.006,0c.364-1.139.635-1.971.667-2.052a30.624,30.624,0,0,1-4.144,2.391c-2.654,1.308-5.3,2.268-5.3,2.268" transform="translate(-978.286 -1570.951)" fill="#070208"/>
        <g id="Group_1579" data-name="Group 1579" transform="translate(156.961 252.051)" opacity="0.4" style="mix-blend-mode: multiply;isolation: isolate">
          <g id="Group_1578" data-name="Group 1578" transform="translate(0)">
            <g id="Group_1577" data-name="Group 1577" clip-path="url(#clip-path-6)">
              <path id="Path_783" data-name="Path 783" d="M1135.247,1827.661l3.507,4.814,1.349.077.432-4.427s2.474-2.2,3.483-3.067a.005.005,0,0,0,.006,0c.364-1.139.635-1.971.667-2.052a30.624,30.624,0,0,1-4.144,2.391c-2.654,1.308-5.3,2.268-5.3,2.268" transform="translate(-1135.247 -1823.002)" fill="#474050"/>
            </g>
          </g>
        </g>
        <path id="Path_784" data-name="Path 784" d="M636.621,1981.607l1.689,2.9,2.593,4.469,3.094.073s.952-1.975,1.91-3.972c.948-1.958,1.886-3.94,1.947-4.085Z" transform="translate(-548.601 -1707.098)" fill="#070208"/>
        <g id="Group_1582" data-name="Group 1582" transform="translate(88.02 273.895)" opacity="0.4" style="mix-blend-mode: multiply;isolation: isolate">
          <g id="Group_1581" data-name="Group 1581" transform="translate(0)">
            <g id="Group_1580" data-name="Group 1580" clip-path="url(#clip-path-7)">
              <path id="Path_785" data-name="Path 785" d="M636.621,1981.607l1.689,2.9a10.645,10.645,0,0,0,3.577.589c1.415.016,2.845,0,4.02-.02.948-1.958,1.886-3.94,1.947-4.085Z" transform="translate(-636.621 -1980.993)" fill="#474050"/>
            </g>
          </g>
        </g>
        <path id="Path_786" data-name="Path 786" d="M539.736,1743.142c10.376.342,33.411-2.632,46.841-7.685s31.47-13.075,35.075-15.468c3.406-2.262,6.212-8.467,6.978-11.35a2.408,2.408,0,0,0-1.1-2.609,13.825,13.825,0,0,0-4.452-1.911c-2.449-.691-5.38,1.435-6.562,2.386-.9.723-5.742,4.953-7.97,6.9-.442.387-.777.682-.96.844-.106.09-.161.141-.161.141s-23.4,6.46-44.974,12.649c-18.119,5.193-34.953,10.195-35.6,11.03-.047.057-.078.109-.118.165-1.042,1.826,2.945,4.584,13,4.911" transform="translate(-453.767 -1468.388)" fill="#db091e"/>
        <path id="Path_787" data-name="Path 787" d="M648.734,1706.029a13.841,13.841,0,0,0-4.452-1.911c-2.449-.691-5.38,1.435-6.562,2.386-.9.722-5.742,4.953-7.97,6.9l-.96.844c-.106.09-.161.141-.161.141s-23.4,6.46-44.974,12.649c-13.515,5.762-32.471,11.88-32.471,11.88l22.639.529,17.1-4.868,28.545-9.87,17.1-4.865,6.29.147c3.406-2.261,6.212-8.467,6.978-11.35a2.408,2.408,0,0,0-1.1-2.609" transform="translate(-474.977 -1468.388)" fill="#f34647"/>
        <path id="Path_788" data-name="Path 788" d="M539.736,1755.9c10.376.342,33.411-2.632,46.841-7.686s31.47-13.076,35.075-15.468c3.406-2.261,6.212-8.467,6.978-11.349a2.408,2.408,0,0,0-1.1-2.609c-.556,6.278-2.891,9.522-6.264,12.778-3.645,3.525-17.9,7.775-28.5,12.6s-30.845,9.519-44.9,9.87c-11.132.284-18.209-1.3-21.121-3.051-1.042,1.826,2.945,4.585,13,4.912" transform="translate(-453.767 -1481.142)" fill="#ff646c"/>
        <path id="Path_789" data-name="Path 789" d="M1116.928,1888.818a.6.6,0,0,0,.009.186.918.918,0,0,0,.858.764c2.573.207,10.981.614,11.34.636h.025a.918.918,0,0,0,.964-.832.906.906,0,0,0-.9-.922s-.067,0-.181-.011c-1.275-.059-8.762-.433-11.1-.616a.92.92,0,0,0-1.019.8" transform="translate(-962.497 -1626.978)" fill="#070208"/>
        <path id="Path_790" data-name="Path 790" d="M622.329,2034.726a.905.905,0,0,0,.841.9c1.758.188,3.585.278,5.214.316,2.874.067,5.13-.028,5.276-.033a.914.914,0,0,0,.895-.918.887.887,0,0,0-.6-.775.9.9,0,0,0-.393-.063,81.2,81.2,0,0,1-10.179-.272.92.92,0,0,0-1.045.77c0,.026-.007.054-.008.079" transform="translate(-536.285 -1752.665)" fill="#070208"/>
        <path id="Path_791" data-name="Path 791" d="M1182.238,1872.813a4.815,4.815,0,0,0,.48,2.252,3.944,3.944,0,0,0,3.425,2.354c.234.005,3.668-.056,3.668-.056a4.36,4.36,0,0,1-3.367-4.538c0-.128.012-.252.024-.373a4.615,4.615,0,0,1,1.91-3.375c-.007,0-.007,0-.015,0a1.283,1.283,0,0,1,.256-.148c.038-.024.076-.045.12-.067a3.408,3.408,0,0,1,.328-.146,3.865,3.865,0,0,1,1.2-.267s-.111,0-.308,0c-.885-.01-3.375-.039-3.6-.045a4.28,4.28,0,0,0-4.117,4.41" transform="translate(-1018.779 -1610.074)" fill="#59302a"/>
        <path id="Path_792" data-name="Path 792" d="M1212.668,1872.864a4.359,4.359,0,0,0,3.367,4.537,3.31,3.31,0,0,0,.541.059,4.28,4.28,0,0,0,4.118-4.409,4.542,4.542,0,0,0-2.31-4.192,3.611,3.611,0,0,0-1.6-.413,3.393,3.393,0,0,0-.606.039,4.977,4.977,0,0,0-1.217.411c-.044.022-.081.044-.12.067a2.136,2.136,0,0,0-.242.151,4.616,4.616,0,0,0-1.91,3.376c-.012.121-.02.245-.023.373" transform="translate(-1045.002 -1610.113)" fill="#663e36"/>
        <path id="Path_793" data-name="Path 793" d="M1233.719,1891.8a1.317,1.317,0,1,0,1.323-1.574,1.477,1.477,0,0,0-1.323,1.574" transform="translate(-1063.143 -1628.877)" fill="#070208"/>
        <g id="Group_1585" data-name="Group 1585" transform="translate(163.458 258.328)" opacity="0.4" style="mix-blend-mode: multiply;isolation: isolate">
          <g id="Group_1584" data-name="Group 1584" transform="translate(0)">
            <g id="Group_1583" data-name="Group 1583" clip-path="url(#clip-path-8)">
              <path id="Path_794" data-name="Path 794" d="M1182.238,1872.813a4.812,4.812,0,0,0,.48,2.252c1.417-.568,2.922-2.493,3.742-2.613h.009c1.035-.177,3.861-2.674,5.691-3.63a3.612,3.612,0,0,0-1.6-.413,3.4,3.4,0,0,0-.606.038c-.885-.01-3.375-.039-3.6-.045a4.28,4.28,0,0,0-4.117,4.41" transform="translate(-1182.236 -1868.402)" fill="#3a2630"/>
            </g>
          </g>
        </g>
        <path id="Path_795" data-name="Path 795" d="M686.872,2011.505a5.154,5.154,0,0,0,.711,2.768,4.148,4.148,0,0,0,3.472,2.159c.251.006,3.934-.057,3.934-.057a4.513,4.513,0,0,1-3.528-3.849,4.848,4.848,0,0,1-.078-1.014,4.992,4.992,0,0,1,2.062-4.007l-.005-.009c.064-.038.121-.079.185-.111l.177-.1c.13-.069.267-.118.4-.175a4.128,4.128,0,0,1,1.274-.281l-.29-.007c-.007,0-.019.006-.025.006-.93-.01-3.635-.04-3.881-.046a4.585,4.585,0,0,0-4.409,4.725" transform="translate(-591.902 -1729.319)" fill="#59302a"/>
        <path id="Path_796" data-name="Path 796" d="M719.5,2011.553a4.838,4.838,0,0,0,.078,1.014,4.513,4.513,0,0,0,3.528,3.849,3.628,3.628,0,0,0,.577.065,4.59,4.59,0,0,0,4.409-4.727A5.283,5.283,0,0,0,727.4,2009a4.193,4.193,0,0,0-3.5-2.174,3.869,3.869,0,0,0-.605.034c-.007,0-.019.005-.025.005a3.9,3.9,0,0,0-.959.283,4.239,4.239,0,0,0-.4.175l-.177.1c-.064.038-.122.077-.18.12a4.993,4.993,0,0,0-2.062,4.008" transform="translate(-620.019 -1729.359)" fill="#663e36"/>
        <path id="Path_797" data-name="Path 797" d="M742.026,2031.816a1.409,1.409,0,1,0,1.415-1.684,1.577,1.577,0,0,0-1.415,1.684" transform="translate(-639.432 -1749.443)" fill="#070208"/>
        <g id="Group_1588" data-name="Group 1588" transform="translate(94.968 277.46)" opacity="0.4" style="mix-blend-mode: multiply;isolation: isolate">
          <g id="Group_1587" data-name="Group 1587" transform="translate(0)">
            <g id="Group_1586" data-name="Group 1586" clip-path="url(#clip-path-9)">
              <path id="Path_798" data-name="Path 798" d="M686.872,2011.505a5.156,5.156,0,0,0,.711,2.768,11.325,11.325,0,0,0,3.879-1.747,6.657,6.657,0,0,0,1.229-1.032c1.283-1.414,4.207-2.488,6.6-2.534a4.194,4.194,0,0,0-3.5-2.175,3.869,3.869,0,0,0-.606.034c-.007,0-.019.006-.025.006-.93-.01-3.635-.04-3.881-.046a4.585,4.585,0,0,0-4.409,4.725" transform="translate(-686.87 -2006.779)" fill="#3a2630"/>
            </g>
          </g>
        </g>
        <path id="Path_799" data-name="Path 799" d="M929.483,1631.473c-.934,3.365-6.481,3.18-6.481,3.18l-7.378-9.39h0l-1.723-2.193-3.579-4.557s9.441-5.175,10.431-4.989c.361.068,1.447,1.505,2.681,3.306.845,1.231,1.76,2.634,2.558,3.88,1.23,1.919,2.184,3.471,2.184,3.471s2.244,3.927,1.309,7.292" transform="translate(-784.459 -1390.432)" fill="#fed194"/>
        <path id="Path_800" data-name="Path 800" d="M923.433,1616.83a12.361,12.361,0,0,1-9.533,6.239l-3.579-4.557s9.441-5.175,10.431-4.989c.361.068,1.447,1.506,2.681,3.306" transform="translate(-784.459 -1390.432)" fill="#f59d4e"/>
        <path id="Path_801" data-name="Path 801" d="M962.541,1676.292c-.934,3.365-6.481,3.18-6.481,3.18l-7.378-9.39c.124.065,6.121,3.188,10.366-4.552,1.23,1.919,2.184,3.471,2.184,3.471s2.244,3.927,1.309,7.292" transform="translate(-817.516 -1435.252)" fill="#ffb113"/>
        <path id="Path_802" data-name="Path 802" d="M873.432,1720.552s15.172-.674,19.781-1.876c5.734-1.5,9.075-5.048,6.575-8.851-.694-1.056-5.89-9.129-5.8-8.288.085.765,3.314,6.426-4.28,7.493a4.329,4.329,0,0,1-4.013-1.634l-.583-.748c-3.1,1.044-13.715,3.322-14.276,3.8-.654.561-2.92,9.919,2.592,10.1" transform="translate(-749.56 -1466.228)" fill="#070208"/>
        <path id="Path_803" data-name="Path 803" d="M899.4,1771.52a7.575,7.575,0,0,1-5.623,7.023c-5.588,1.552-25.156,1.848-25.156,1.848l2.451,1.927s16.253.387,24.106-1.927a11.01,11.01,0,0,0,3.632-2.381,5.108,5.108,0,0,0,.59-6.489" transform="translate(-748.525 -1526.587)" fill="#ffb113"/>
        <path id="Path_804" data-name="Path 804" d="M562.69,463.773q-.2.507-.413,1a30.633,30.633,0,0,1-11.842,13.564h0l-.005,0c-4.482,2.71-8.681,3.32-10.2,1.041-3.111-4.673,4.234-20.379,4.234-20.379s23.182-8.039,18.229,4.767" transform="translate(-464.873 -393.397)" fill="#f34647"/>
        <path id="Path_805" data-name="Path 805" d="M572.722,488.631a30.638,30.638,0,0,1-11.842,13.564h0l-.005,0c-.193.083-4.964,2.1-8.3-.175-3.408-2.323,3.085-17.815,3.085-17.815s14.037-.465,17.068,4.422" transform="translate(-475.317 -417.251)" fill="#ff646c"/>
        <path id="Path_806" data-name="Path 806" d="M597.188,488.631a29.909,29.909,0,0,1-5.584,8.427h0a15.689,15.689,0,0,1-8.678-2.325c-3.927-2.617-2.8-10.524-2.8-10.524s14.036-.465,17.068,4.422" transform="translate(-499.783 -417.251)" fill="#db091e"/>
        <path id="Path_807" data-name="Path 807" d="M585.244,349.8c-1.945,1.6-3.477-1.044-6.562-3.475a16.9,16.9,0,0,1-3.15-3.367h0a20,20,0,0,1-1.711-2.8c-1-1.688.652-11.133,3.52-17.01,1.015-2.081,2.184-3.714,3.441-4.4,4.811-2.617,6.407,29.447,4.463,31.052" transform="translate(-494.232 -274.551)" fill="#72120c"/>
        <path id="Path_808" data-name="Path 808" d="M579.408,339.82a26.656,26.656,0,0,0-3.877,15.826,20.005,20.005,0,0,1-1.711-2.8c-1-1.688.652-11.133,3.52-17.01,2.969-2.015,5.383-3.126,5.4-2.162.05,2.283-3.335,6.147-3.335,6.147" transform="translate(-494.232 -287.236)" fill="#530905"/>
        <path id="Path_809" data-name="Path 809" d="M832.982,1619.233c0,.032,0,.067-.006.1-.164,2.349-.445,5.413-.725,8.27-.432,4.434-.865,8.37-.865,8.37l-7.776,1.287-.554-10.089-.454-8.272-.552-10.078-.452-8.238a8.91,8.91,0,0,1,8.447,3.448c2.03,2.661,3.479,7.27,2.938,15.2" transform="translate(-708.002 -1379.198)" fill="#fed194"/>
        <path id="Path_810" data-name="Path 810" d="M835.8,1641.35c-4.714,1.078-10.381-.334-10.381-.334l-.552-10.077a10.14,10.14,0,0,1,5.14-4.06,9.79,9.79,0,0,1,2.855-.731c2.03,2.662,3.479,7.27,2.938,15.2" transform="translate(-710.821 -1401.314)" fill="#f59d4e"/>
        <path id="Path_811" data-name="Path 811" d="M841.341,1793.942c-.432,4.434-.865,8.371-.865,8.371L832.7,1803.6l-.554-10.089a11.933,11.933,0,0,0,9.2.431" transform="translate(-717.092 -1545.537)" fill="#ffb113"/>
        <path id="Path_812" data-name="Path 812" d="M723.076,1842.2c.021.307-.037,1.434,0,1.673.266,1.553.725,2.489-8.118,5.3-10.207,3.249-16.513,3.891-20.05-.289-3.174-3.754,6.816-6.15,18.742-13.214-.062.161-1.249,5.251,8.373,1.806.4-.145.542.369.619.788a27.879,27.879,0,0,1,.43,3.931" transform="translate(-598.319 -1581.872)" fill="#070208"/>
        <path id="Path_813" data-name="Path 813" d="M718.67,1900.277c-10.207,3.249-16.513,3.891-20.05-.289a14.694,14.694,0,0,0,10.374,1.545c5.186-.965,14.793-5.2,17.794-6.56.266,1.553.725,2.489-8.118,5.3" transform="translate(-602.028 -1632.971)" fill="#ffb113"/>
        <path id="Path_814" data-name="Path 814" d="M807.713,1849.828a.344.344,0,0,1-.45-.148,5.279,5.279,0,0,0-2.247-2.45.344.344,0,0,1,.248-.643,5.781,5.781,0,0,1,2.605,2.766.344.344,0,0,1-.14.467l-.016.009" transform="translate(-693.525 -1591.256)" fill="#fff"/>
        <path id="Path_815" data-name="Path 815" d="M791.014,1858.319a.344.344,0,0,1-.45-.148,5.281,5.281,0,0,0-2.247-2.45.344.344,0,0,1,.248-.643,5.78,5.78,0,0,1,2.605,2.766.344.344,0,0,1-.14.466l-.016.009" transform="translate(-679.135 -1598.573)" fill="#fff"/>
        <path id="Path_816" data-name="Path 816" d="M771.175,1869.745a.344.344,0,0,1-.45-.148,5.278,5.278,0,0,0-2.247-2.45.345.345,0,0,1,.248-.643,5.778,5.778,0,0,1,2.605,2.766.344.344,0,0,1-.14.467l-.016.008" transform="translate(-662.039 -1608.419)" fill="#fff"/>
        <path id="Path_817" data-name="Path 817" d="M681.647,534.573s.208,3.823,1.89,5.193-6.752,16.91-9.826,15,.721-7.539-4.321-22.02c0,0,11.633-.582,12.257,1.828" transform="translate(-576.84 -459.034)" fill="#fed194"/>
        <path id="Path_818" data-name="Path 818" d="M684.225,546.174a11.407,11.407,0,0,1-9.589,3.954l-1.52-5.839Z" transform="translate(-580.051 -469.035)" fill="#f59d4e"/>
        <path id="Path_819" data-name="Path 819" d="M188.943,1067.079s-5.236-1.188-7.853,1.43a10.7,10.7,0,0,1-5.3,2.882h-.007c-.217.046-.431.083-.636.113l-.034.005a7.249,7.249,0,0,1-1.746.051,5.7,5.7,0,0,0-3.291.881h0c-.648.339-1.34.749-2.12,1.174-2.169,1.185-5.308.063-3.189-.872a13.027,13.027,0,0,0,2.669-1.786c1.449-1.187,2.691-2.451,2.691-2.451s-2.695-1.241-4.554-2.172c-.191-.1-.375-.189-.545-.277a2.6,2.6,0,0,0-1.461-.277,46.052,46.052,0,0,0-4.721.669c-1.525.387-3.552,3.366-5.982,3.491s-1.745-1.621-.747-1.87,5.671-4.675,5.671-4.675a3.38,3.38,0,0,1,2.181-2.216c1.375-.271,2.657-.477,3.855-.633a64.36,64.36,0,0,1,7.3-.515c2.991-.062,13.585.685,13.585.685l.995,1.492Z" transform="translate(-130.294 -913.468)" fill="#fed194"/>
        <path id="Path_820" data-name="Path 820" d="M198.754,1072.749a10.662,10.662,0,0,1,2.029-.966c.174-.069.352-.126.531-.183s.358-.111.537-.164.362-.1.544-.14.364-.089.548-.127c.37-.066.739-.135,1.112-.178l.28-.032.282-.022c.188-.015.375-.028.564-.031a8.442,8.442,0,0,1,2.245.221l0,.042a15.531,15.531,0,0,0-2.211.062c-.734.08-1.464.192-2.186.344s-1.441.321-2.152.522-1.415.428-2.1.69Z" transform="translate(-171.274 -922.838)" fill="#f59d4e"/>
        <path id="Path_821" data-name="Path 821" d="M266,1067.081s-5.236-1.188-7.853,1.43a10.7,10.7,0,0,1-5.3,2.883h-.007c-.217.046-.431.083-.636.113l-.034.005a7.263,7.263,0,0,1-1.746.052,5.7,5.7,0,0,0-3.291.88c-.03-.065-1.075-2.322-2.64-1.483,1.449-1.186,2.691-2.452,2.691-2.452s-2.695-1.241-4.554-2.172c-.191-.1-.375-.189-.545-.277a2.6,2.6,0,0,0-1.461-.277s1-2.691.208-3.9a.962.962,0,0,0,.049-1.33,64.365,64.365,0,0,1,7.3-.515c.412-.008.968,0,1.62.016,1.407.038,3.264.13,5.093.232,3.486.2,6.872.436,6.872.436l.995,1.492Z" transform="translate(-207.346 -913.47)" fill="#070208"/>
        <path id="Path_822" data-name="Path 822" d="M313.189,1062.4h-4.83a3.116,3.116,0,0,0-1.371-2.227c1.407.038,3.264.13,5.093.232a6.273,6.273,0,0,1,1.107,1.995" transform="translate(-264.543 -913.593)" fill="#fed194"/>
        <path id="Path_823" data-name="Path 823" d="M671.76,633.216l1.745,1.454,5.858-2.608s5.858,9.5,5.609,9.63-14.458,2.8-14.458,2.8l-1.122-10.221Z" transform="translate(-576.841 -544.672)" fill="#d2d7db"/>
        <path id="Path_824" data-name="Path 824" d="M442.3,700.757s-4.3,11.218-7.666,18.7c-1.417,3.15-14.522,8.27-28.706,12.347-1.712.492-3.441.969-5.165,1.426a2.27,2.27,0,0,1-2.773-1l-6.512,1.714c.83-4.364-2.029-8.068-2.029-8.068a35.3,35.3,0,0,0,4.74-1.155,1.261,1.261,0,0,0,.592-1c.4-2.68,21.531-11.934,21.531-11.934s.4-2.537.969-6.166c1.188-7.515,3.132-19.714,3.88-23.749a29.344,29.344,0,0,1,2.208-6.92h0a21.55,21.55,0,0,1,1.638-2.987Z" transform="translate(-335.606 -579.058)" fill="#f34647"/>
        <path id="Path_825" data-name="Path 825" d="M707.319,1031.714s-27.857,45.058-23,52.536,29.282,33.719,29.282,33.719,10.543-2.887,15.217-12.236c0,0-9.537-13.537-14.3-18.3s18.852-59.828,18.852-59.828Z" transform="translate(-589.216 -885.523)" fill="#261f28"/>
        <path id="Path_826" data-name="Path 826" d="M621.3,316.71c-1.589,3.272-5.608,8.975-12.713,7.852a12.766,12.766,0,0,1-9.536-7.572s-4.364.351-5.585-4.773c-.043-.178-.082-.364-.117-.556-.624-3.461,2.232-3.41,4.572-2.833a1.3,1.3,0,0,0,1.507-1.794c-1.792-3.99-4.634-11.2-3.181-13.975.769-1.468,3.222-3.43,6.183-4.953,4.961-2.552,11.353-3.866,13.635.466,0,0,4.05,1.527,5.547,8.258s1.278,16.608-.312,19.88" transform="translate(-511.237 -246.24)" fill="#fed194"/>
        <path id="Path_827" data-name="Path 827" d="M620.125,307.161s-9.981,1.865-15.091,1.8-7.042,5.858-6.108,8.849,1.87,5.613-.5,5.985-4.82-.594-4.963,2.859c-.043-.178-.081-.364-.117-.556-.624-3.461,2.231-3.41,4.572-2.833a1.3,1.3,0,0,0,1.507-1.794c-1.792-3.99-4.634-11.2-3.181-13.975.769-1.468,3.222-3.43,6.183-4.953a11.844,11.844,0,0,1,2.543.061c6.27.822,11.613,2.77,14.209,3.116.234.031.944,1.438.944,1.438" transform="translate(-511.237 -260.68)" fill="#f59d4e"/>
        <path id="Path_828" data-name="Path 828" d="M812.081,933.655c-1.636,10.977-21.125,22.794-31.624,31.347-1.957,1.594-9.465,6.691-9.465,6.691a177.62,177.62,0,0,1,.238,19.362c-.791,14.778-1.552,24.37-1.552,24.37a22.227,22.227,0,0,1-11.067,5.451c-6.731,1.121-8.391-3.833-8.391-3.833s-5.444-43.189-6.068-51.6c-.444-6.015,13.952-20.637,22.2-28.486,3.289-3.13,5.6-5.183,5.6-5.183l33.489-21.428,2.718-1.739a10.362,10.362,0,0,1,.686,1.054c1.589,2.708,5.232,10.648,3.24,24" transform="translate(-641.255 -782.979)" fill="#261f28"/>
        <path id="Path_829" data-name="Path 829" d="M902.263,940.226c-1.636,10.978-21.125,22.794-31.624,31.347-1.957,1.594-9.465,6.691-9.465,6.691a177.585,177.585,0,0,1,.238,19.362c-.791,14.779-1.552,24.37-1.552,24.37a22.226,22.226,0,0,1-11.067,5.451c9.908-14.676,1.309-27.391.747-44.778s34.588-38.14,27.15-39.143-20.159,0-20.159,0c-2.46-6.372,12.451-18.056,30.658-24.229a83.633,83.633,0,0,1,8.43-2.382q1.7-.383,3.4-.685c1.589,2.708,5.232,10.648,3.24,24" transform="translate(-731.438 -789.551)" fill="#070208"/>
        <path id="Path_830" data-name="Path 830" d="M880.672,1111.02s-28.64,16.822-31.522,37.606,2.083,44.031,2.083,44.031" transform="translate(-730.97 -957.409)" fill="none" stroke="#fff" stroke-linecap="round" stroke-width="4"/>
        <path id="Path_831" data-name="Path 831" d="M979.779,935.622h0c-.088,1.456-.247,2.99-.488,4.6-1.636,10.978-21.125,22.794-31.624,31.347-1.957,1.594-9.465,6.691-9.465,6.691s-.453-6.066,2.681-8.122c2.628-1.723,25.207-16.976,30.685-27.372a3.436,3.436,0,0,0-3.919-4.914l-.136.035c-4.581,1.215-15.985,3.808-15.985,3.808a236.179,236.179,0,0,1,12.69-22.4,83.658,83.658,0,0,1,8.43-2.382q1.7-.383,3.4-.685a22.41,22.41,0,0,1,1.432,2.953,37.593,37.593,0,0,1,2.3,16.439" transform="translate(-808.464 -789.551)" fill="#070208"/>
        <path id="Path_832" data-name="Path 832" d="M1141.349,954.028h0s-.736-3.747-3.853-2.935c-3.091.8-11.69,4.247-11.824,4.3.049-.118,3.225-7.682,3.334-9.8.086-1.674,5.095-6.146,10.048-8a37.59,37.59,0,0,1,2.3,16.439" transform="translate(-970.034 -807.956)" fill="#27140e"/>
        <path id="Path_833" data-name="Path 833" d="M576.365,258.44l-6.731.561c-.151.027-.3.056-.447.084-19.2,3.762-19.932,22.726-19.932,22.726a13.339,13.339,0,0,1-1.531-1.992c-5.005-7.887-3.48-22.137,8.169-27.361,12.713-5.7,20.473,5.982,20.473,5.982" transform="translate(-469.667 -216.202)" fill="#f34647"/>
        <path id="Path_834" data-name="Path 834" d="M586.711,306.827l-.685.458c-19.2,3.762-19.932,22.726-19.932,22.726a13.3,13.3,0,0,1-1.531-1.992,40.448,40.448,0,0,1,3.151-8.779,21.035,21.035,0,0,1,19-12.413" transform="translate(-486.506 -264.401)" fill="#ff646c"/>
        <path id="Path_835" data-name="Path 835" d="M827.153,909.123s40.135,9.224,59.579-17.574l-5.858-11.342Z" transform="translate(-712.79 -758.507)" fill="#fff"/>
        <path id="Path_836" data-name="Path 836" d="M863.182,908.954s22.191.169,35.4-5.939,17.434-14.876,17.434-14.876l-4.1-7.934Z" transform="translate(-743.837 -758.507)" fill="#aeb6b7"/>
        <path id="Path_837" data-name="Path 837" d="M689.871,249.331c-3.093,2.18-8.979,1.532-12.731.806h0c-2.03-.391-3.435-.806-3.435-.806,1.012-.51,3.643-1.389,3.643-1.389s6.262-4.027,9.908-9.449c2.151-3.2,4.335-.018,4.784,3.819h0c.311,2.663-.215,5.641-2.168,7.018" transform="translate(-580.555 -204.387)" fill="#72120c"/>
        <path id="Path_838" data-name="Path 838" d="M1030.228,1172.623c0,.686-6.855,7.852-8.163,7.852a15.709,15.709,0,0,1-4.177-1.195,15.252,15.252,0,0,1-2.7-1.338c-.068-.046-.13-.092-.188-.137-1.333-1.049-4.836-15.215-4.836-15.215s3.863-3.241,6.232-2,7.228,10.158,7.228,10.158a7.224,7.224,0,0,1,2.11.037c1.045.111,2.066.276,2.066.276a10.234,10.234,0,0,0-.33-2.789,1.908,1.908,0,0,1,.579-2.135.972.972,0,0,1,.976.144c1.336,1.063,1.205,5.765,1.205,6.337" transform="translate(-870.496 -999.884)" fill="#fed194"/>
        <path id="Path_839" data-name="Path 839" d="M1061.541,1209.872c0,.687-6.854,7.852-8.163,7.852a20.151,20.151,0,0,1-6.879-2.533c1.692-.789,5.2-2.521,6.6-3.916,1.87-1.87,5.542-.037,6.918-2.431.9-1.57.621-3.894.321-5.308,1.336,1.063,1.205,5.765,1.205,6.337" transform="translate(-901.808 -1037.133)" fill="#f59d4e"/>
        <path id="Path_840" data-name="Path 840" d="M1026.006,1172.966c-1.659,3.768-8.118,6.315-8.118,6.315a15.257,15.257,0,0,1-2.7-1.338c-.068-.046-.131-.092-.188-.137-1.333-1.049-4.836-15.215-4.836-15.215s3.863-3.241,6.232-2,7.228,10.158,7.228,10.158a7.224,7.224,0,0,1,2.11.037,2.768,2.768,0,0,1,.273,2.176" transform="translate(-870.496 -999.884)" fill="#070208"/>
        <path id="Path_841" data-name="Path 841" d="M545.018,700.757s-4.3,11.218-7.666,18.7c-1.418,3.15-14.522,8.27-28.706,12.347,32.431-12.463,24.151-25.821,21.228-37.027a139.617,139.617,0,0,1-3.787-19.82h0a21.548,21.548,0,0,1,1.638-2.987Z" transform="translate(-438.32 -579.058)" fill="#db091e"/>
        <path id="Path_842" data-name="Path 842" d="M673.2,841.719s2.87,7.15,4.646,10.3,2.827,10.244,2.827,10.244l6.147-15.225Z" transform="translate(-580.125 -725.342)" fill="#db091e"/>
        <path id="Path_843" data-name="Path 843" d="M628.659,677.027s-3.931,2.665.076,13.135,10.27,18.79,12.7,18.883-12.777-32.018-12.777-32.018" transform="translate(-540.254 -583.42)" fill="#070208"/>
        <path id="Path_844" data-name="Path 844" d="M722.413,603.629s3.628,17.742-14.548,27.382a38.486,38.486,0,0,1-9.839,3.551c-27.794,6.108-32.657,5.111-32.657,5.111s-3.081-5.118-6.992-11.914c-5.826-10.124-13.492-23.976-15.552-30.185-3.444-10.376-4.285-15.8-2.509-17.668s4.767-5.186,4.767-5.186-1.3,9.34,2.794,10.068,10.48-17.265,10.48-17.265,12.989.951,15.424,1.992c3.6,1.542,7.278,1.931,48.631,34.112" transform="translate(-551.007 -489.057)" fill="#f34647"/>
        <path id="Path_845" data-name="Path 845" d="M826.067,664.881q-.844.448-1.739.862a39.475,39.475,0,0,1-8.1,2.689c-7.292,1.6-13.006,2.715-17.468,3.486,0,0,0,0,0,0-12.543,2.166-15.189,1.624-15.189,1.624s-3.081-5.118-6.992-11.914c17.132-10.183,5.395-31.832,2.629-39.813-2.9-8.371-1.177-14.484-1.177-14.484,3.43-3.445,31.471,11.417,44.088,24.573,2.769,2.887,7.287,9.046,7.983,11.132,2.12,6.356.268,14.6-4.037,21.845" transform="translate(-669.209 -522.927)" fill="#ff646c"/>
        <path id="Path_846" data-name="Path 846" d="M860.773,781.018a39.474,39.474,0,0,1-8.1,2.689c-7.292,1.6-13.006,2.715-17.468,3.486.052-.058.1-.12.162-.182,5.453-5.963.48-21.875-4.49-28.731-4.932-6.8-11.9-17.514-12-17.681.236.068,24.4,7.114,38.995,12.554,11.646,4.34,5.8,21.133,2.905,27.865" transform="translate(-705.654 -638.203)" fill="#db091e"/>
        <path id="Path_847" data-name="Path 847" d="M841.935,625.256c-2.337,9.162-5.049,25.333-7.1,25.709l-2.056.374a57.09,57.09,0,0,0,.591,5.951s-7.167,2.617-9.161,1.06l-.187-6.543s-1.371-.561-1.121-3.552c.169-2.03,1.041-12.107,1.175-19.078.015-.815.02-1.587.015-2.3a12.452,12.452,0,0,0-.474-4.331c-1.309-2.244-18.418-14.843-27.391-33.269L795.6,580.1s3.952-7.195,12.043-4.817a26.028,26.028,0,0,1,6.934,2.71,34.221,34.221,0,0,1,10.5,11.332q.838,1.455,1.538,2.991l3.135,6.886c1.791,2.159,6.43,8.307,8.689,11.472q.748,1.047,1.579,2.028c1.224,1.452,3.725,5.462,1.916,12.549" transform="translate(-685.598 -495.331)" fill="#f34647"/>
        <path id="Path_848" data-name="Path 848" d="M324.13,1143.035l.034,0-.034.005Z" transform="translate(-279.315 -984.994)" fill="none" stroke="#fff" stroke-width="1"/>
        <path id="Path_849" data-name="Path 849" d="M801.22,600.786S774.738,572.214,798,566.18a.408.408,0,0,0,.06-.771c-2.108-.892-6.935-2.389-10.691.541-4.949,3.86-5.484,21.023,13.851,34.836" transform="translate(-675.997 -486.214)" fill="#070208"/>
        <path id="Path_850" data-name="Path 850" d="M421.346,1072.4a9.913,9.913,0,0,0-1.34-5.266c-1.465-2.088.881,4.175-3.455,6.528Z" transform="translate(-358.958 -919.227)" fill="#db091e"/>
        <path id="Path_851" data-name="Path 851" d="M591.445,922.276c-3.335-2.9-7.7-.935-7.7-.935s.4-2.537.969-6.166c6.287-.709,9.615,9.609,6.727,7.1" transform="translate(-503.039 -788.612)" fill="#db091e"/>
        <path id="Path_852" data-name="Path 852" d="M1028.863,1208.805a19.381,19.381,0,0,0,4.892-1.807l1.371,3.21a7.839,7.839,0,0,1-5,2.1Z" transform="translate(-886.611 -1040.117)" fill="#fed194"/>
        <path id="Path_853" data-name="Path 853" d="M707.831,563.781s-5.408,7.584-8.69,11.531a8.6,8.6,0,0,1,7.6,3.033s.665,1.7,1.329-1.662,3.531-12.9,3.531-12.9-3.477-1.352-3.774,0" transform="translate(-602.477 -485.314)" fill="#fff"/>
        <path id="Path_854" data-name="Path 854" d="M658.718,603.506a12.347,12.347,0,0,1-1.55-5.607l-.291-2s-4.807,10.392-4.641,15c0,0,.291.665,1.329-1.994s3.116-8.06,5.152-5.4" transform="translate(-562.054 -513.508)" fill="#fff"/>
        <path id="Path_855" data-name="Path 855" d="M959.615,1746.791a.344.344,0,0,1-.372-.293,5.282,5.282,0,0,0-1.275-3.07.344.344,0,0,1,.452-.52,5.782,5.782,0,0,1,1.5,3.49.344.344,0,0,1-.291.391l-.018,0" transform="translate(-825.417 -1501.859)" fill="#fff"/>
        <path id="Path_856" data-name="Path 856" d="M939.825,1749.685a.3.3,0,0,1-.324-.255,4.594,4.594,0,0,0-1.109-2.669.3.3,0,0,1,.393-.451,5.024,5.024,0,0,1,1.308,3.033.3.3,0,0,1-.253.34l-.016,0" transform="translate(-808.562 -1504.8)" fill="#fff"/>
        <path id="Path_857" data-name="Path 857" d="M922.181,1753.05a.235.235,0,0,1-.255-.2,3.611,3.611,0,0,0-.872-2.1.235.235,0,0,1,.309-.355,3.952,3.952,0,0,1,1.028,2.385.235.235,0,0,1-.2.267h-.012" transform="translate(-793.64 -1508.334)" fill="#fff"/>
        <path id="Path_858" data-name="Path 858" d="M1027.963,1124.137s-3.646-1.195-5.557-.405,5.907,4.825,5.907,4.825Z" transform="translate(-880.787 -968.131)" fill="#db091e"/>
        <path id="Path_859" data-name="Path 859" d="M970.345,892.316a13.83,13.83,0,0,1,2.9-3.318c1.87-1.543-7.369-1.071-7.369-1.071Z" transform="translate(-832.331 -765.103)" fill="#db091e"/>
        <path id="Path_860" data-name="Path 860" d="M711.3,281.319c-3.093,2.18-8.979,1.531-12.731.806a20.88,20.88,0,0,0,14.9-7.825h0c.311,2.663-.215,5.641-2.168,7.018" transform="translate(-601.983 -236.375)" fill="#530905"/>
        <path id="Path_861" data-name="Path 861" d="M729.206,254.67a15.423,15.423,0,0,0,2.534-1.3,11.791,11.791,0,0,0,1.128-.825,9.333,9.333,0,0,0,1.01-.948,9.428,9.428,0,0,0,1.56-2.278,13.641,13.641,0,0,0,.918-2.69v0a.02.02,0,0,1,.04.007,9.538,9.538,0,0,1-.658,2.812,8.253,8.253,0,0,1-1.556,2.434,9.572,9.572,0,0,1-2.281,1.776,10.276,10.276,0,0,1-2.688,1.061.02.02,0,0,1-.012-.039Z" transform="translate(-628.37 -212.509)" fill="#fff"/>
        <path id="Path_862" data-name="Path 862" d="M776.636,407.828c.144.788.6,1.365,1.028,1.287s.649-.779.505-1.568-.6-1.365-1.028-1.287-.649.779-.505,1.568" transform="translate(-669.22 -350.084)" fill="#72120c"/>
        <path id="Path_863" data-name="Path 863" d="M702.749,417.686c.144.788.6,1.365,1.028,1.287s.649-.779.505-1.568-.6-1.365-1.028-1.287-.649.779-.505,1.568" transform="translate(-605.549 -358.579)" fill="#72120c"/>
        <path id="Path_864" data-name="Path 864" d="M690,380.909c.043-.227-.234-.4-.459-.452-.715-.176-2.506-.443-3.009,1.139-.414,1.3.185,1,.267.8a3.051,3.051,0,0,1,.842-1.239c.882-.581,2.26.275,2.359-.246" transform="translate(-591.488 -327.738)" fill="#72120c"/>
        <path id="Path_865" data-name="Path 865" d="M772.477,374.389c.148-.178-.013-.46-.183-.617-.54-.5-1.978-1.6-3.184-.461-.994.939-.323.966-.153.827a3.054,3.054,0,0,1,1.337-.676c1.053-.081,1.844,1.335,2.183.928" transform="translate(-662.313 -321.266)" fill="#72120c"/>
        <path id="Path_866" data-name="Path 866" d="M742.093,418.615a19.545,19.545,0,0,1,1.036,2.353l.114.3.105.3.212.6c.135.4.261.8.4,1.193.063.2.127.395.195.569.018.053.031.072.043.1l.009.021,0,.011a.084.084,0,0,0,.011.023.74.74,0,0,1,.084.212.712.712,0,0,1,.014.238.82.82,0,0,1-.052.2.746.746,0,0,1-.081.15l-.044.062c-.015.018-.029.033-.044.05a2.064,2.064,0,0,1-.675.453,3.731,3.731,0,0,1-.655.228,6.245,6.245,0,0,1-1.317.2,5.272,5.272,0,0,1-1.311-.1v-.055a8.069,8.069,0,0,0,1.259-.14,7.951,7.951,0,0,0,1.223-.323,4.689,4.689,0,0,0,.58-.247,1.69,1.69,0,0,0,.5-.357.287.287,0,0,0,.087-.245.2.2,0,0,0-.023-.059l-.037-.073a1.4,1.4,0,0,1-.069-.149c-.082-.2-.152-.4-.221-.6-.264-.809-.5-1.625-.731-2.442l-.342-1.227-.324-1.232Z" transform="translate(-637.807 -360.737)" fill="#f59d4e"/>
        <path id="Path_867" data-name="Path 867" d="M714.224,492a12.54,12.54,0,0,1-8.1-1.381.092.092,0,0,0-.106.149c1.638,1.307,4.83,3.19,8.336,1.695a.243.243,0,0,0-.131-.463" transform="translate(-608.373 -422.769)" fill="#f59d4e"/>
        <path id="Path_868" data-name="Path 868" d="M690.574,445.69a.351.351,0,1,0,.5,0,.351.351,0,0,0-.5,0" transform="translate(-595.005 -383.981)" fill="#f59d4e"/>
        <path id="Path_869" data-name="Path 869" d="M781.8,438.035a.351.351,0,1,0,.5,0,.351.351,0,0,0-.5,0" transform="translate(-673.621 -377.384)" fill="#f59d4e"/>
        <path id="Path_870" data-name="Path 870" d="M681.75,451.341a.248.248,0,1,0,.351,0,.248.248,0,0,0-.351,0" transform="translate(-587.427 -388.876)" fill="#f59d4e"/>
        <path id="Path_871" data-name="Path 871" d="M796.392,429.745a.248.248,0,1,0,.351,0,.248.248,0,0,0-.351,0" transform="translate(-686.218 -370.266)" fill="#f59d4e"/>
        <path id="Path_872" data-name="Path 872" d="M795.438,452.468a.248.248,0,1,0,.351,0,.248.248,0,0,0-.351,0" transform="translate(-685.396 -389.847)" fill="#f59d4e"/>
        <path id="Path_873" data-name="Path 873" d="M680.182,442.769a.248.248,0,1,0,.351,0,.248.248,0,0,0-.351,0" transform="translate(-586.075 -381.489)" fill="#f59d4e"/>
        <path id="Path_874" data-name="Path 874" d="M701.483,454.224a.351.351,0,1,0,.5,0,.35.35,0,0,0-.5,0" transform="translate(-604.405 -391.335)" fill="#f59d4e"/>
        <path id="Path_875" data-name="Path 875" d="M687.762,459.951a.447.447,0,1,0,.633,0,.448.448,0,0,0-.633,0" transform="translate(-592.557 -396.246)" fill="#f59d4e"/>
        <path id="Path_876" data-name="Path 876" d="M791.925,439.455a.447.447,0,1,0,.633,0,.447.447,0,0,0-.633,0" transform="translate(-682.318 -378.584)" fill="#f59d4e"/>
        <path id="Path_877" data-name="Path 877" d="M674.448,456.889a.447.447,0,1,0,.633,0,.447.447,0,0,0-.633,0" transform="translate(-581.083 -393.607)" fill="#f59d4e"/>
        <path id="Path_878" data-name="Path 878" d="M1296.563,1629.185c.259-.148.512-.305.761-.468s.5-.324.743-.494c.489-.338.973-.682,1.44-1.047a34.824,34.824,0,0,0,2.706-2.3,32.1,32.1,0,0,0,2.438-2.563,27.281,27.281,0,0,0,5.245-9.128,30.407,30.407,0,0,0,1.412-6.952,23.094,23.094,0,0,1-.9,7.114l-.268.863-.069.216-.08.211-.16.423c-.2.569-.459,1.115-.7,1.67a24.91,24.91,0,0,1-3.993,6.01,27.306,27.306,0,0,1-2.57,2.534,27.823,27.823,0,0,1-2.87,2.173c-.5.328-1.012.643-1.535.934a16.8,16.8,0,0,1-1.6.8" transform="translate(-1117.298 -1384.156)" fill="#efefef"/>
        <path id="Path_879" data-name="Path 879" d="M1325.372,1607.911a31.529,31.529,0,0,0,4.345-2.044,42.637,42.637,0,0,0,4.039-2.572,43.735,43.735,0,0,0,3.72-3c.6-.53,1.167-1.084,1.736-1.641l.83-.859c.278-.286.535-.589.8-.884l.4-.443.385-.456.385-.457c.129-.152.258-.3.378-.462l.736-.942c.247-.312.467-.645.707-.964.482-.635.906-1.311,1.356-1.97.216-.335.418-.679.629-1.017l.316-.508c.107-.168.2-.346.3-.518a58.559,58.559,0,0,0,4.061-8.7,43.569,43.569,0,0,1-3.589,8.958c-.1.177-.183.36-.286.534l-.3.525c-.2.348-.4.7-.616,1.044-.441.677-.858,1.371-1.334,2.026a40.252,40.252,0,0,1-3.011,3.805,38.939,38.939,0,0,1-7.3,6.365,36.444,36.444,0,0,1-4.189,2.43,25.64,25.64,0,0,1-4.5,1.745" transform="translate(-1142.124 -1361.959)" fill="#efefef"/>
        <path id="Path_880" data-name="Path 880" d="M994.316,687.043l-7.353-8.476s-1.371-2.151,1-1.793a14.705,14.705,0,0,1,1.682.391q.838,1.455,1.538,2.991Z" transform="translate(-850.164 -583.168)" fill="#db091e"/>
        <path id="Path_881" data-name="Path 881" d="M996.776,698.466l-7.353-8.476,5.195,3.735Z" transform="translate(-852.623 -594.592)" fill="#858b8c"/>
        <rect id="Rectangle_246" data-name="Rectangle 246" width="10.969" height="6.326" transform="translate(168.463 88.964) rotate(-56.891)" fill="#fff"/>
        <line id="Line_31" data-name="Line 31" y1="7.541" x2="5.297" transform="translate(147.518 63.054)" fill="none" stroke="#070208" stroke-width="1"/>
        <line id="Line_32" data-name="Line 32" y1="7.541" x2="5.297" transform="translate(149.107 63.976)" fill="none" stroke="#070208" stroke-width="1"/>
        <line id="Line_33" data-name="Line 33" y1="7.541" x2="5.297" transform="translate(150.549 65.134)" fill="none" stroke="#070208" stroke-width="1"/>
        <path id="Path_882" data-name="Path 882" d="M759.654,779.089s11.8-.208,10.847-2.308a4.907,4.907,0,0,0-2.048-2.573Z" transform="translate(-654.623 -667.166)" fill="#42115f"/>
        <rect id="Rectangle_247" data-name="Rectangle 247" width="9.681" height="2.742" transform="translate(104.405 109.254) rotate(-13.203)" fill="#fff"/>
      </g>
    </g>
  </g>
</svg>
