<svg xmlns="http://www.w3.org/2000/svg" width="21.992" height="23.008" viewBox="0 0 21.992 23.008"><defs><style>.a{fill:#7a7a7a;}</style></defs><g transform="translate(0 11.533)"><path class="a" d="M22.324,257.323a11.009,11.009,0,0,0-11,11,.478.478,0,0,0,.956,0,10.04,10.04,0,0,1,20.08,0,.478.478,0,0,0,.956,0A11.008,11.008,0,0,0,22.324,257.323Z" transform="translate(-11.328 -257.323)"/></g><g transform="translate(5.737)"><path class="a" d="M144.587,0a5.259,5.259,0,1,0,5.259,5.259A5.265,5.265,0,0,0,144.587,0Zm0,9.562a4.3,4.3,0,1,1,4.3-4.3A4.308,4.308,0,0,1,144.587,9.562Z" transform="translate(-139.328)"/></g></svg>