<svg xmlns="http://www.w3.org/2000/svg" width="16" height="15.001" viewBox="0 0 16 15.001"><defs><style>.a{fill:#7a7a7a;fill-rule:evenodd;}</style></defs><path class="a" d="M8,2.748l-.717-.737A3.756,3.756,0,0,0,1.4,3.053a4.715,4.715,0,0,0,.314,4.385C2.635,9.253,4.549,11.427,8,13.8c3.452-2.368,5.365-4.542,6.286-6.357A4.714,4.714,0,0,0,14.6,3.053,3.756,3.756,0,0,0,8.717,2.01ZM8,15C-7.333,4.868,3.279-3.04,7.825,1.143c.06.055.119.112.176.171q.085-.089.176-.17C12.721-3.042,23.334,4.867,8,15Z" transform="translate(0 0)"/></svg>